<?xml version="1.0" encoding="utf-8"?>
<!-- Generator: Adobe Illustrator 19.0.0, SVG Export Plug-In . SVG Version: 6.00 Build 0)  -->
<svg version="1.0" id="Layer_1" xmlns="http://www.w3.org/2000/svg" xmlns:xlink="http://www.w3.org/1999/xlink" x="0px" y="0px"
	 viewBox="0 0 90 90" style="enable-background:new 0 0 90 90;" xml:space="preserve">
<style type="text/css">
	.st0{fill:#61E786;}
</style>
<g id="XMLID_62_">
	<g id="XMLID_146_">
		<g id="XMLID_151_">
			<path id="XMLID_152_" class="st0" d="M90,74V48.5c0,0,0,0,0,0c-23.7,0-39.5,15.9-39.5,40.4c0,0.4,0,0.7,0,1.1H74
				C82.8,90,90,82.8,90,74z"/>
		</g>
		<g id="XMLID_149_">
			<path id="XMLID_150_" class="st0" d="M36.5,88.9C36.5,57.1,57.8,36,90,36c0,0,0,0,0,0V16c0-8.8-7.2-16-16-16H46.2
				c0,0.8,0,1.5,0,2.3c0,26.4-17.2,41.9-44.5,41.9c-0.6,0-1.2,0-1.8,0V74c0,8.8,7.2,16,16,16h20.5C36.5,89.6,36.5,89.3,36.5,88.9z"
				/>
		</g>
		<g id="XMLID_147_">
			<path id="XMLID_148_" class="st0" d="M0,16v15.4c0.4,0,0.8,0,1.2,0c19.4,0,31-10.9,31-29.1c0-0.8,0-1.6-0.1-2.3H16
				C7.2,0,0,7.2,0,16z"/>
		</g>
	</g>
</g>
</svg>
